# File created by Blade
# Date/Time:  Thu Jan 22 16:16:06 2015
# Frame Rate: 120.000 fps
#------------------------------------------------------
:FULLY-SPECIFIED
:DEGREES
600
root -1.018551 33.998873 -6.297973 52.517491 -30.712282 -3.876071
RightUpLeg -78.089911 -2.321874 -16.564058
RightLeg 24.091342 -0.000000 -0.000000
RightFoot -5.818639 -13.389670 27.367513
RightToeBase 14.458737 -0.000000 -0.000000
LeftUpLeg -42.213154 39.450132 1.460012
LeftLeg -6.291943 -0.000000 0.000000
LeftFoot -0.362704 20.238020 -39.949404
LeftToeBase 11.767711 -0.000000 -0.000000
Spine 76.857425 -14.227691 -2.778731
RightShoulder 12.179032 13.389261 -37.362998
RightArm 62.874661 27.911576 33.523010
RightForeArm -15.110833 -0.000000 29.218602
RightHand 12.440994 -0.000000 -20.701465
RightHandThumb1 -24.326973 -0.000000 -32.862282
LeftShoulder 8.132816 -13.050017 48.375767
LeftArm 72.185380 -24.615154 -42.066664
LeftForeArm 73.717854 -0.000000 18.926546
LeftHand -17.032415 -0.000000 6.104138
LeftHandThumb1 -26.253704 0.000000 33.147579
Head -5.558715 19.241016 2.804887
601
root -0.995317 34.016762 -6.306315 52.258237 -30.512496 -3.923058
RightUpLeg -77.599844 -2.352458 -16.399574
RightLeg 23.711517 -0.000000 -0.000000
RightFoot -5.581190 -13.466263 27.400614
RightToeBase 14.275278 -0.000000 -0.000000
LeftUpLeg -41.996821 39.396039 1.714632
LeftLeg -6.279417 -0.000000 0.000000
LeftFoot -0.271995 20.198447 -39.853314
LeftToeBase 11.758691 -0.000000 -0.000000
Spine 76.812232 -14.298740 -2.718387
RightShoulder 12.195338 13.116849 -37.309857
RightArm 62.963919 27.798360 33.841507
RightForeArm -15.158688 -0.000000 29.517130
RightHand 12.312568 -0.000000 -21.197127
RightHandThumb1 -24.326973 -0.000000 -32.862282
LeftShoulder 8.218734 -12.850859 48.359102
LeftArm 72.281592 -24.480256 -42.414850
LeftForeArm 73.609482 -0.000000 19.173466
LeftHand -17.218329 0.000000 6.656719
LeftHandThumb1 -26.253704 0.000000 33.147579
Head -5.137285 19.542309 2.773055
602
root -0.967683 34.034985 -6.316956 51.974584 -30.309027 -3.993677
RightUpLeg -77.068205 -2.340946 -16.257881
RightLeg 23.300882 -0.000000 -0.000000
RightFoot -5.497248 -13.505813 27.716385
RightToeBase 14.416627 -0.000000 -0.000000
LeftUpLeg -41.711452 39.312378 2.061653
LeftLeg -6.257178 -0.000000 0.000000
LeftFoot -0.226329 20.181394 -39.757594
LeftToeBase 11.754651 -0.000000 -0.000000
Spine 76.802039 -14.404285 -2.681821
RightShoulder 12.200044 12.820475 -37.367787
RightArm 63.104726 27.702006 34.221535
RightForeArm -15.008666 0.000000 29.819588
RightHand 12.400916 -0.000000 -21.396695
RightHandThumb1 -24.326973 -0.000000 -32.862282
LeftShoulder 8.252952 -12.640631 48.255336
LeftArm 72.306664 -24.274522 -42.500705
LeftForeArm 73.341278 -0.000000 19.371196
LeftHand -17.381124 -0.000000 7.193913
LeftHandThumb1 -26.253704 0.000000 33.147579
Head -4.840198 19.616082 2.484922
603
root -0.941102 34.053237 -6.324423 51.641504 -30.082739 -4.059240
RightUpLeg -76.479197 -2.357761 -16.045504
RightLeg 22.891270 -0.000000 -0.000000
RightFoot -5.320744 -13.590458 27.707168
RightToeBase 14.444204 -0.000000 -0.000000
LeftUpLeg -41.341863 39.185614 2.487744
LeftLeg -6.244519 -0.000000 0.000000
LeftFoot -0.187996 20.180243 -39.660957
LeftToeBase 11.762708 -0.000000 -0.000000
Spine 76.818030 -14.510848 -2.599647
RightShoulder 12.174875 12.674918 -37.397240
RightArm 63.122911 27.455430 34.599956
RightForeArm -14.984961 0.000000 30.170159
RightHand 12.611648 0.000000 -21.515637
RightHandThumb1 -24.326973 -0.000000 -32.862282
LeftShoulder 8.315312 -12.497630 48.178965
LeftArm 72.277901 -24.028799 -42.657513
LeftForeArm 73.128469 0.000000 19.660170
LeftHand -17.605800 -0.000000 7.586749
LeftHandThumb1 -26.253704 0.000000 33.147579
Head -4.576129 19.636141 2.185005
604
root -0.908959 34.070721 -6.338800 51.322187 -29.904623 -4.092907
RightUpLeg -75.928012 -2.346625 -15.982631
RightLeg 22.471942 -0.000000 -0.000000
RightFoot -4.979675 -13.798271 27.400672
RightToeBase 14.048794 -0.000000 -0.000000
LeftUpLeg -40.967741 38.983315 2.935075
LeftLeg -6.200013 -0.000000 0.000000
LeftFoot -0.230329 20.230381 -39.639209
LeftToeBase 11.745150 -0.000000 -0.000000
Spine 76.742362 -14.553019 -2.572845
RightShoulder 12.185340 12.296672 -37.389385
RightArm 63.204587 27.361097 35.005220
RightForeArm -14.926990 0.000000 30.591406
RightHand 12.745289 -0.000000 -21.958502
RightHandThumb1 -24.326973 -0.000000 -32.862282
LeftShoulder 8.372042 -12.271677 48.158842
LeftArm 72.368827 -23.754256 -42.832783
LeftForeArm 72.880002 -0.000000 19.800549
LeftHand -17.845014 -0.000000 8.582743
LeftHandThumb1 -26.253704 0.000000 33.147579
Head -4.223062 19.654579 2.044868
605
root -0.881400 34.088191 -6.348366 50.976001 -29.697585 -4.167463
RightUpLeg -75.315209 -2.312942 -15.868429
RightLeg 22.044259 -0.000000 -0.000000
RightFoot -4.905296 -13.889472 27.508451
RightToeBase 14.323041 -0.000000 -0.000000
LeftUpLeg -40.581689 38.860645 3.376920
LeftLeg -6.157599 -0.000000 0.000000
LeftFoot -0.203166 20.204942 -39.525989
LeftToeBase 11.732167 -0.000000 -0.000000
Spine 76.711644 -14.583033 -2.482597
RightShoulder 12.137298 12.008996 -37.381143
RightArm 63.230043 27.139294 35.375390
RightForeArm -14.837119 -0.000000 31.048219
RightHand 12.704064 -0.000000 -22.079546
RightHandThumb1 -24.326973 -0.000000 -32.862282
LeftShoulder 8.414387 -12.074020 48.126820
LeftArm 72.465674 -23.443233 -42.984317
LeftForeArm 72.651521 -0.000000 20.043911
LeftHand -18.277836 0.000000 9.242077
LeftHandThumb1 -26.253704 0.000000 33.147579
Head -3.945593 19.704112 1.900902
606
root -0.848684 34.106036 -6.354592 50.564886 -29.460575 -4.170463
RightUpLeg -74.660634 -2.352359 -15.757762
RightLeg 21.627186 -0.000000 -0.000000
RightFoot -4.772491 -14.012093 27.516517
RightToeBase 14.408870 -0.000000 -0.000000
LeftUpLeg -40.190752 38.673548 3.778835
LeftLeg -6.114925 -0.000000 0.000000
LeftFoot -0.176823 20.177922 -39.428107
LeftToeBase 11.729672 -0.000000 -0.000000
Spine 76.707674 -14.725673 -2.456304
RightShoulder 12.131688 11.841920 -37.423516
RightArm 63.218495 26.830522 35.803970
RightForeArm -14.779081 -0.000000 31.476240
RightHand 12.845982 -0.000000 -22.480992
RightHandThumb1 -24.326973 -0.000000 -32.862282
LeftShoulder 8.441092 -11.858756 48.067938
LeftArm 72.444893 -23.075299 -42.995515
LeftForeArm 72.273075 -0.000000 20.226279
LeftHand -18.601548 0.000000 10.457389
LeftHandThumb1 -26.253704 0.000000 33.147579
Head -3.679101 19.749230 1.619869
607
root -0.812191 34.121282 -6.363536 50.152014 -29.246210 -4.145990
RightUpLeg -74.024401 -2.394037 -15.739335
RightLeg 21.226847 -0.000000 -0.000000
RightFoot -4.636371 -14.119826 27.634047
RightToeBase 14.367216 -0.000000 -0.000000
LeftUpLeg -39.748118 38.390412 4.250044
LeftLeg -6.071755 -0.000000 0.000000
LeftFoot -0.226434 20.218212 -39.395250
LeftToeBase 11.732939 -0.000000 -0.000000
Spine 76.643362 -14.821411 -2.446747
RightShoulder 12.110668 11.389966 -37.405180
RightArm 63.349485 26.696894 36.196545
RightForeArm -14.712541 -0.000000 31.902667
RightHand 12.897701 -0.000000 -23.157421
RightHandThumb1 -24.326973 -0.000000 -32.862282
LeftShoulder 8.459886 -11.557076 48.052845
LeftArm 72.568903 -22.723292 -43.073410
LeftForeArm 72.006936 -0.000000 20.437109
LeftHand -18.487180 -0.000000 10.460389
LeftHandThumb1 -26.253704 0.000000 33.147579
Head -3.366854 19.796775 1.463093
608
root -0.771921 34.138920 -6.372888 49.692461 -29.058271 -4.121651
RightUpLeg -73.338550 -2.411117 -15.703141
RightLeg 20.775734 -0.000000 -0.000000
RightFoot -4.463887 -14.302938 27.640186
RightToeBase 14.444162 -0.000000 -0.000000
LeftUpLeg -39.307502 38.159261 4.658875
LeftLeg -5.999437 -0.000000 0.000000
LeftFoot -0.256186 20.217031 -39.312753
LeftToeBase 11.765089 -0.000000 -0.000000
Spine 76.618491 -14.873108 -2.437257
RightShoulder 12.032937 11.074016 -37.408665
RightArm 63.369546 26.423239 36.615362
RightForeArm -14.787345 -0.000000 32.411189
RightHand 13.062722 0.000000 -23.392658
RightHandThumb1 -24.326973 -0.000000 -32.862282
LeftShoulder 8.473626 -11.333204 48.072552
LeftArm 72.623256 -22.304947 -43.107365
LeftForeArm 71.372712 0.000000 20.702042
LeftHand -18.753855 -0.000000 10.765164
LeftHandThumb1 -26.253704 0.000000 33.147579
Head -3.293306 19.693044 0.963235
609
root -0.731561 34.154390 -6.382166 49.212808 -28.822823 -4.073736
RightUpLeg -72.653739 -2.477293 -15.655413
RightLeg 20.402120 -0.000000 -0.000000
RightFoot -4.289827 -14.462782 27.613701
RightToeBase 14.381252 -0.000000 -0.000000
LeftUpLeg -38.868604 37.891154 5.073551
LeftLeg -5.948895 -0.000000 0.000000
LeftFoot -0.268246 20.214841 -39.248579
LeftToeBase 11.719912 -0.000000 -0.000000
Spine 76.582466 -15.019945 -2.464064
RightShoulder 12.048452 10.787459 -37.425308
RightArm 63.308488 26.102998 36.787978
RightForeArm -14.757047 -0.000000 32.823431
RightHand 13.130508 -0.000000 -23.544164
RightHandThumb1 -24.326973 -0.000000 -32.862282
LeftShoulder 8.487501 -11.013644 48.026952
LeftArm 72.660441 -21.928679 -43.118893
LeftForeArm 71.097954 -0.000000 20.971307
LeftHand -19.651720 -0.000000 12.123892
LeftHandThumb1 -26.253704 0.000000 33.147579
Head -3.030935 19.748794 0.576021
